# xmcd
#
# Track frame offsets:
#	150
#	19965
#	39810
#	58642
#	83142
#	105242
#	126215
#	151035
#	176400
#	202740
#
# Disc length: 2938 seconds
#
# Revision: 0
# Processed by: cddbd v1.5.1PL0 Copyright (c) Steve Scherf et al.
# Submitted via: EasyCDDAExtractor 8.1.4.1
#
DISCID=690b780a
DTITLE=Various Artist - Con Do Que Huong
DYEAR=1900
DGENRE=
TTITLE0=Thanh Huyen - Chuyen ba nguoi
TTITLE1=Tuan Vu - Suong trang mien que ngoai
TTITLE2=Thanh Huyen - Con do que huong
TTITLE3=Tuan Vu - Xin tron tuoi loan
TTITLE4=Thanh Huyen - Ky niem nao buon
TTITLE5=Tuan Vu - Co nho chang em
TTITLE6=Thanh Huyen - Mua bui 2
TTITLE7=Tuan Vu - Dinh menh
TTITLE8=Thanh Huyen - Hai vi sao lac
TTITLE9=Unknown artist - Mau chay ve tim
EXTD=
EXTT0=
EXTT1=
EXTT2=
EXTT3=
EXTT4=
EXTT5=
EXTT6=
EXTT7=
EXTT8=
EXTT9=
PLAYORDER=
